<?xml version="1.0" encoding="utf-8"?>
<svg viewBox="0 0 515 210" xmlns="http://www.w3.org/2000/svg">
  <defs>
    <linearGradient id="_Linear1" x1="18.704" y1="28.486" x2="181.598" y2="133.108" gradientUnits="userSpaceOnUse">
      <stop offset="0" stop-color="rgb(180,118,255)"/>
      <stop offset="0.22" stop-color="rgb(255,182,156)"/>
      <stop offset="0.22" stop-color="rgb(255,218,144)"/>
      <stop offset="0.53" stop-color="white"/>
      <stop offset="0.53" stop-color="rgb(115,255,213)"/>
      <stop offset="0.81" stop-color="rgb(161,238,255)"/>
      <stop offset="1" stop-color="rgb(228,255,250)"/>
    </linearGradient>
  </defs>
  <path d="M 108.3 197.85 L 80.7213 170.3406 L 135.7618 170.3406 Z" style="fill: rgb(161, 255, 238);"/>
  <path d="M 206.47 37.6709 L 192.1277 23.3286 L 24.3423 23.3286 L 10 37.6709 L 10 152.4094 L 24.3423 166.7517 L 192.1277 166.7517 L 206.47 152.4094 L 206.47 37.6709 Z" style="fill: url(#_Linear1); stroke-width: 10.42px;"/>
  <rect x="11.9444" y="28.4494" width="11.1257" height="135.7095" style="fill: rgb(255, 255, 255);"/>
  <ellipse cx="70.6319" cy="93.0755" rx="9.8235" ry="9.8235" style="fill:rgb(36,58,89);"/>
  <ellipse cx="145.624" cy="93.0755" rx="9.8235" ry="9.8235" style="fill:rgb(36,58,89);"/>
  <path d="M 132.3951 117.9251 C 137.7919 114.6057 142.7188 121.7228 138.1772 125.6233 C 113.583 144.2264 91.4278 135.5863 79.819 125.478 C 75.2074 120.4773 81.7165 114.578 86.1311 118.1709 C 99.9628 129.7154 116.2541 130.0314 132.3951 117.9251 Z" style="fill: rgb(37, 59, 89);"/>
  <path d="M 421.1734 5.0001 L 394.4999 51.1884 L 367.8264 5.0001 L 279 5.0001 L 394.4999 204.9999 L 509.9999 5.0001 L 421.1734 5.0001 Z" style="fill:#41b883;fill-opacity:1;fill-rule:nonzero;stroke:none" id="path14"/>
  <path d="M 421.1734 5.0001 L 394.4999 51.1884 L 367.8264 5.0001 L 325.1999 5.0001 L 394.4999 124.9998 L 463.7999 5.0001 L 421.1734 5.0001 Z" style="fill:#34495e;fill-opacity:1;fill-rule:nonzero;stroke:none" id="path18"/>
  <path d="M 259.9304 72.2298 L 269.7539 72.2298 L 269.7539 90.1333 L 288.5166 90.1333 L 288.5166 99.947 L 269.7539 99.947 L 269.7539 117.8505 L 259.9304 117.8505 L 259.9304 99.947 L 241.1677 99.947 L 241.1677 90.1333 L 259.9304 90.1333 Z" style="fill: rgb(92, 88, 108);"/>
  <path d="M 142.8656 170.3684 L 115.2812 197.9528 C 111.3533 201.7852 104.9215 201.7852 101.1078 197.8734 L 73.683 170.4487 L 73.7541 170.3406 L 87.8503 170.3406 L 108.2229 190.7133 L 108.2333 190.722 L 108.2342 190.7228 L 108.2359 190.7228 L 128.6181 170.3406 L 142.9045 170.3406 C 142.8916 170.35 142.8786 170.3593 142.8656 170.3684 Z" style="fill: rgb(37, 59, 89);"/>
  <path d="M 206.47 37.6709 C 206.47 29.7556 200.0435 23.3286 192.1277 23.3286 L 24.3423 23.3286 C 16.4265 23.3286 10 29.7556 10 37.6709 L 10 152.4094 C 10 160.3247 16.4265 166.7517 24.3423 166.7517 L 192.1277 166.7517 C 200.0435 166.7517 206.47 160.3247 206.47 152.4094 L 206.47 37.6709 Z" style="stroke: rgb(36, 58, 89); stroke-width: 10.42px; fill: none;"/>
</svg>