<svg viewBox="0 0 515 210" xmlns="http://www.w3.org/2000/svg"><defs><linearGradient id="a" x1="18.704" y1="28.486" x2="181.598" y2="133.108" gradientUnits="userSpaceOnUse"><stop offset="0" stop-color="#B476FF"/><stop offset=".22" stop-color="#FFB69C"/><stop offset=".22" stop-color="#FFDA90"/><stop offset=".53" stop-color="#fff"/><stop offset=".53" stop-color="#73FFD5"/><stop offset=".81" stop-color="#A1EEFF"/><stop offset="1" stop-color="#E4FFFA"/></linearGradient></defs><path d="m108.3 197.85-27.579-27.51h55.04Z" style="fill:#a1ffee"/><path d="M206.47 37.67 192.128 23.33H24.342L10 37.67v114.738l14.342 14.343h167.786l14.342-14.343V37.671Z" style="fill:url(#a);stroke-width:10.42px"/><path style="fill:#fff" d="M11.944 28.449H23.07v135.709H11.944z"/><circle cx="70.632" cy="93.076" style="fill:#243a59" r="9.823"/><circle cx="145.624" cy="93.076" style="fill:#243a59" r="9.823"/><path d="M132.395 117.925c5.397-3.32 10.324 3.798 5.782 7.698-24.594 18.603-46.75 9.963-58.358-.145-4.612-5 1.897-10.9 6.312-7.307 13.832 11.544 30.123 11.86 46.264-.246Z" style="fill:#253b59"/><path d="M421.173 5 394.5 51.188 367.826 5H279l115.5 200L510 5h-88.827Z" style="fill:#41b883;fill-opacity:1;fill-rule:nonzero;stroke:none"/><path d="M421.173 5 394.5 51.188 367.826 5H325.2l69.3 120L463.8 5h-42.627Z" style="fill:#34495e;fill-opacity:1;fill-rule:nonzero;stroke:none"/><path d="M259.93 72.23h9.824v17.903h18.763v9.814h-18.763v17.903h-9.824V99.947h-18.762v-9.814h18.762Z" style="fill:#5c586c"/><path d="m142.866 170.368-27.585 27.585c-3.928 3.832-10.36 3.832-14.173-.08L73.683 170.45l.071-.108H87.85l20.373 20.372.01.009h.003l20.382-20.381h14.287l-.04.027Z" style="fill:#253b59"/><path d="M206.47 37.67c0-7.914-6.427-14.341-14.342-14.341H24.342C16.427 23.329 10 29.756 10 37.67v114.738c0 7.916 6.427 14.343 14.342 14.343h167.786c7.916 0 14.342-6.427 14.342-14.343V37.671Z" style="stroke:#243a59;stroke-width:10.42px;fill:none"/></svg>